<mxfile host="app.diagrams.net" modified="2024-03-20T08:42:22.464Z" agent="Mozilla/5.0 (Windows NT 10.0; Win64; x64) AppleWebKit/537.36 (KHTML, like Gecko) Chrome/122.0.0.0 Safari/537.36" version="24.0.7" etag="uY_2Xu2xpdljne6r70tL" type="github">
  <diagram name="第 1 页" id="DUXFu6X1wsyB77LNf8Vv">
    <mxGraphModel>
      <root>
        <mxCell id="0" />
        <mxCell id="1" parent="0" />
      </root>
    </mxGraphModel>
  </diagram>
</mxfile>
